<?xml version="1.0" encoding="UTF-8" standalone="no"?>
<svg class="hide" viewBox="0 0 27 28" version="1.1" xmlns="http://www.w3.org/2000/svg" xmlns:xlink="http://www.w3.org/1999/xlink" xmlns:sketch="http://www.bohemiancoding.com/sketch/ns">
    <g id="Page-1" stroke="none" stroke-width="1" fill="none" fill-rule="evenodd" sketch:type="MSPage">
        <g id="fontawesome" sketch:type="MSLayerGroup" fill="#000000">
            <g id="Group" sketch:type="MSShapeGroup">
                <path d="M0.935,0.282 L0.578,0.639 L0.578,1.073 L0.759,1.073 C0.779,1.073 0.795,1.09 0.795,1.109 C0.795,1.128 0.778,1.145 0.759,1.145 L0.253,1.145 C0.233,1.145 0.217,1.128 0.217,1.109 C0.217,1.09 0.234,1.073 0.253,1.073 L0.434,1.073 L0.434,0.639 L0.077,0.282 C0.065,0.271 0.053,0.254 0.053,0.238 C0.053,0.21 0.088,0.205 0.109,0.205 L0.904,0.205 C0.925,0.205 0.96,0.21 0.96,0.238 C0.959,0.254 0.946,0.271 0.935,0.282 L0.935,0.282 Z" id="cup"></path>
                <path d="M2.367,0.892 C2.367,0.971 2.248,1 2.187,1 C2.126,1 2.006,0.971 2.006,0.892 C2.006,0.813 2.125,0.784 2.187,0.784 C2.224,0.784 2.262,0.791 2.295,0.806 L2.295,0.502 L1.861,0.636 L1.861,1.036 C1.861,1.116 1.742,1.144 1.68,1.144 C1.618,1.144 1.5,1.116 1.5,1.036 C1.5,0.956 1.619,0.928 1.681,0.928 C1.718,0.928 1.756,0.935 1.789,0.95 L1.789,0.404 C1.789,0.38 1.805,0.36 1.828,0.352 L2.298,0.207 C2.303,0.205 2.308,0.205 2.314,0.205 C2.344,0.205 2.368,0.229 2.368,0.259 L2.368,0.892 L2.367,0.892 Z" id="music"></path>
             </g>
        </g>
    </g>
</svg>
