<?xml version="1.0" encoding="utf-8"?>
<!-- Generated by IcoMoon.io -->
<!DOCTYPE svg PUBLIC "-//W3C//DTD SVG 1.1//EN" "http://www.w3.org/Graphics/SVG/1.1/DTD/svg11.dtd">

<svg version="1.1" xmlns="http://www.w3.org/2000/svg" xmlns:xlink="http://www.w3.org/1999/xlink" width="244" height="84" viewBox="0 0 244 84">
<defs>
<g id="database">
  <path d="M26.952 4.398c-2.935-0.772-6.825-1.198-10.952-1.198s-8.016 0.425-10.952 1.198c-3.35 0.882-5.048 2.094-5.048 3.602v19.2c0 1.509 1.699 2.721 5.048 3.602 2.935 0.772 6.825 1.198 10.952 1.198s8.016-0.425 10.952-1.198c3.35-0.882 5.048-2.093 5.048-3.602v-19.2c0-1.509-1.699-2.721-5.048-3.602zM5.456 5.945c2.806-0.739 6.551-1.145 10.544-1.145s7.738 0.407 10.544 1.145c2.829 0.744 3.856 1.637 3.856 2.055s-1.027 1.31-3.856 2.055c-2.806 0.739-6.551 1.145-10.544 1.145s-7.738-0.407-10.544-1.145c-2.829-0.744-3.856-1.637-3.856-2.055s1.027-1.31 3.856-2.055zM26.544 29.255c-2.806 0.738-6.551 1.145-10.544 1.145s-7.738-0.407-10.544-1.145c-2.829-0.744-3.856-1.637-3.856-2.055v-4.144c0.83 0.51 1.98 0.96 3.448 1.346 2.935 0.772 6.825 1.198 10.952 1.198s8.016-0.425 10.952-1.198c1.468-0.386 2.619-0.836 3.448-1.346v4.144c0 0.418-1.027 1.31-3.856 2.055zM26.544 22.855c-2.806 0.738-6.551 1.145-10.544 1.145s-7.738-0.407-10.544-1.145c-2.829-0.744-3.856-1.637-3.856-2.055v-4.144c0.83 0.51 1.98 0.96 3.448 1.346 2.935 0.773 6.825 1.198 10.952 1.198s8.016-0.425 10.952-1.198c1.468-0.386 2.619-0.836 3.448-1.346v4.144c0 0.418-1.027 1.31-3.856 2.055zM26.544 16.455c-2.806 0.738-6.551 1.145-10.544 1.145s-7.738-0.407-10.544-1.145c-2.829-0.744-3.856-1.637-3.856-2.055v-4.144c0.83 0.51 1.98 0.96 3.448 1.346 2.935 0.772 6.825 1.198 10.952 1.198s8.016-0.425 10.952-1.198c1.468-0.386 2.619-0.836 3.448-1.346v4.144c0 0.418-1.027 1.31-3.856 2.055z" />
</g>
<g id="upload">
  <path d="M28 32h-25.6c-1.323 0-2.4-1.077-2.4-2.4v-1.6c0-1.323 1.077-2.4 2.4-2.4h9.6c0.442 0 0.8 0.358 0.8 0.8s-0.358 0.8-0.8 0.8h-9.6c-0.441 0-0.8 0.359-0.8 0.8v1.6c0 0.441 0.359 0.8 0.8 0.8h25.6c0.441 0 0.8-0.359 0.8-0.8v-1.6c0-0.441-0.359-0.8-0.8-0.8h-9.6c-0.442 0-0.8-0.358-0.8-0.8s0.358-0.8 0.8-0.8h9.6c1.323 0 2.4 1.077 2.4 2.4v1.6c0 1.323-1.077 2.4-2.4 2.4z" />
  <path d="M23.766 11.766c-0.312 0.312-0.819 0.312-1.131 0l-6.634-6.634v22.869c0 0.442-0.358 0.8-0.8 0.8s-0.8-0.358-0.8-0.8v-22.869l-6.634 6.634c-0.312 0.312-0.819 0.312-1.131 0-0.312-0.312-0.312-0.819 0-1.131l8-8c0.156-0.156 0.361-0.234 0.566-0.234s0.409 0.078 0.566 0.234l8 8c0.312 0.312 0.312 0.819-0 1.131z" />
</g>
<g id="download">
  <path d="M28 32h-25.6c-1.323 0-2.4-1.077-2.4-2.4v-1.6c0-1.323 1.077-2.4 2.4-2.4h8c0.442 0 0.8 0.358 0.8 0.8s-0.358 0.8-0.8 0.8h-8c-0.441 0-0.8 0.359-0.8 0.8v1.6c0 0.441 0.359 0.8 0.8 0.8h25.6c0.441 0 0.8-0.359 0.8-0.8v-1.6c0-0.441-0.359-0.8-0.8-0.8h-8c-0.442 0-0.8-0.358-0.8-0.8s0.358-0.8 0.8-0.8h8c1.323 0 2.4 1.077 2.4 2.4v1.6c0 1.323-1.077 2.4-2.4 2.4z" />
  <path d="M23.766 18.634c-0.312-0.312-0.819-0.312-1.131 0l-6.634 6.634v-22.869c0-0.442-0.358-0.8-0.8-0.8s-0.8 0.358-0.8 0.8v22.869l-6.634-6.634c-0.312-0.312-0.819-0.312-1.131 0-0.312 0.312-0.312 0.819 0 1.131l8 8c0.156 0.156 0.361 0.234 0.566 0.234s0.409-0.078 0.566-0.234l8-8c0.312-0.312 0.312-0.819-0-1.131z" />
</g>
<g id="upload2">
  <path d="M24.8 32h-19.2c-1.323 0-2.4-1.077-2.4-2.4v-16c0-1.323 1.077-2.4 2.4-2.4h6.4c0.442 0 0.8 0.358 0.8 0.8s-0.358 0.8-0.8 0.8h-6.4c-0.441 0-0.8 0.359-0.8 0.8v16c0 0.441 0.359 0.8 0.8 0.8h19.2c0.441 0 0.8-0.359 0.8-0.8v-16c0-0.441-0.359-0.8-0.8-0.8h-6.4c-0.442 0-0.8-0.358-0.8-0.8s0.358-0.8 0.8-0.8h6.4c1.323 0 2.4 1.077 2.4 2.4v16c0 1.323-1.077 2.4-2.4 2.4z" />
  <path d="M20.566 5.834l-4.8-4.8c-0.312-0.312-0.819-0.312-1.131 0l-4.8 4.8c-0.312 0.312-0.312 0.819 0 1.131 0.312 0.312 0.819 0.312 1.131 0l3.434-3.434v18.069c0 0.442 0.358 0.8 0.8 0.8s0.8-0.358 0.8-0.8v-18.069l3.434 3.434c0.156 0.156 0.361 0.234 0.566 0.234s0.409-0.078 0.566-0.234c0.313-0.312 0.313-0.819 0-1.131z" />
</g>
<g id="newspaper">
  <path d="M28 8v-4h-28v22c0 1.105 0.895 2 2 2h27c1.657 0 3-1.343 3-3v-17h-4zM26 26h-24v-20h24v20zM4 10h20v2h-20zM16 14h8v2h-8zM16 18h8v2h-8zM16 22h6v2h-6zM4 14h10v10h-10z" />
</g>
<g id="office">
  <path d="M0 32h16v-32h-16v32zM10 4h4v4h-4v-4zM10 12h4v4h-4v-4zM10 20h4v4h-4v-4zM2 4h4v4h-4v-4zM2 12h4v4h-4v-4zM2 20h4v4h-4v-4zM18 10h14v2h-14zM18 32h4v-8h6v8h4v-18h-14z" />
</g>
<g id="tag">
  <path d="M28.994 0h-9.018c-1.653 0-3.962 0.956-5.131 2.125l-13.968 13.968c-1.169 1.169-1.169 3.082 0 4.251l10.778 10.778c1.169 1.169 3.082 1.169 4.251 0l13.968-13.968c1.169-1.169 2.125-3.478 2.125-5.131v-9.018c0-1.653-1.353-3.006-3.006-3.006zM25 10c-1.657 0-3-1.343-3-3s1.343-3 3-3 3 1.343 3 3-1.343 3-3 3z" />
</g>
<g id="pen">
  <path d="M30 9l-7-7 2-2 7 7zM28 11l-1 11c-9 0-22 10-22 10l-1.66-1.66 8.552-8.552c0.343 0.137 0.717 0.212 1.108 0.212 1.657 0 3-1.343 3-3 0-1.657-1.343-3-3-3-1.657 0-3 1.343-3 3 0 0.392 0.076 0.765 0.212 1.108l-8.552 8.552-1.66-1.66c0 0 10-13 10-22l11-1 7 7z" />
</g>
<g id="bell">
  <path d="M32.047 25c0-9-8-7-8-14 0-0.58-0.056-1.076-0.158-1.498-0.526-3.532-2.88-6.366-5.93-7.23 0.027-0.123 0.041-0.251 0.041-0.382 0-1.040-0.9-1.891-2-1.891-1.1 0-2 0.851-2 1.891 0 0.131 0.014 0.258 0.041 0.382-3.421 0.969-5.966 4.416-6.039 8.545-0.001 0.060-0.002 0.121-0.002 0.183 0 7-8 5-8 14 0 2.382 5.331 4.375 12.468 4.878 0.673 1.263 2.002 2.122 3.532 2.122s2.86-0.86 3.532-2.122c7.137-0.503 12.468-2.495 12.468-4.878 0-0.007-0.001-0.014-0.001-0.021l0.048 0.021zM25.82 26.691c-1.695 0.452-3.692 0.777-5.837 0.958-0.178-2.044-1.893-3.648-3.984-3.648s-3.805 1.604-3.984 3.648c-2.144-0.18-4.142-0.506-5.837-0.958-2.332-0.622-3.447-1.318-3.855-1.691 0.408-0.372 1.523-1.068 3.855-1.691 2.712-0.724 6.199-1.122 9.82-1.122s7.109 0.398 9.82 1.122c2.332 0.622 3.447 1.318 3.855 1.691-0.408 0.372-1.523 1.068-3.855 1.691z" />
</g>
<g id="bubbles">
  <path d="M34 28.161c0 1.422 0.813 2.653 2 3.256v0.498c-0.332 0.045-0.671 0.070-1.016 0.070-2.125 0-4.042-0.892-5.398-2.321-0.819 0.218-1.688 0.336-2.587 0.336-4.971 0-9-3.582-9-8 0-4.418 4.029-8 9-8 4.971 0 9 3.582 9 8 0 1.73-0.618 3.331-1.667 4.64-0.213 0.463-0.333 0.979-0.333 1.522zM16 0c8.702 0 15.781 5.644 15.995 12.672-1.537-0.685-3.237-1.047-4.995-1.047-2.986 0-5.807 1.045-7.942 2.943-2.214 1.968-3.433 4.607-3.433 7.432 0 1.396 0.298 2.747 0.867 3.993-0.163 0.004-0.327 0.007-0.492 0.007-0.849 0-1.682-0.054-2.495-0.158-3.437 3.437-7.539 4.053-11.505 4.144v-0.841c2.142-1.049 4-2.961 4-5.145 0-0.305-0.024-0.604-0.068-0.897-3.619-2.383-5.932-6.024-5.932-10.103 0-7.18 7.163-13 16-13z" />
</g>
</defs>

<g fill="#333333">
  <use xlink:href="#database" transform="translate(0 0)"></use>
  <use xlink:href="#upload" transform="translate(52 0)"></use>
  <use xlink:href="#download" transform="translate(104 0)"></use>
  <use xlink:href="#upload2" transform="translate(156 0)"></use>
  <use xlink:href="#newspaper" transform="translate(208 0)"></use>
  <use xlink:href="#office" transform="translate(0 52)"></use>
  <use xlink:href="#tag" transform="translate(52 52)"></use>
  <use xlink:href="#pen" transform="translate(104 52)"></use>
  <use xlink:href="#bell" transform="translate(156 52)"></use>
  <use xlink:href="#bubbles" transform="translate(208 52)"></use>
</g>

</svg>
